<svg width="16" height="16" viewBox="0 0 16 16" fill="none" xmlns="http://www.w3.org/2000/svg">
<g clip-path="url(#clip0)">
<path d="M14.1414 15.3664L13.5741 4.40986C13.5583 4.10501 13.3065 3.86594 13.0013 3.86594H11.3273V3.32752C11.3273 1.49273 9.83444 3.05176e-05 7.99961 3.05176e-05C6.16482 3.05176e-05 4.6722 1.49273 4.6722 3.32752V3.86594H2.99814C2.69287 3.86594 2.44104 4.10501 2.42523 4.40986L1.85647 15.3967C1.84838 15.5538 1.90508 15.7073 2.01339 15.8214C2.12166 15.9354 2.27205 16 2.42934 16H13.5702C13.5704 16.0001 13.5707 16.0001 13.5709 16C13.8877 16 14.1445 15.7432 14.1445 15.4264C14.1444 15.4061 14.1435 15.3861 14.1414 15.3664ZM5.48936 6.18766C5.15006 6.18766 4.87492 5.91252 4.87492 5.57322C4.87492 5.23392 5.15006 4.95878 5.48936 4.95878C5.82866 4.95878 6.1038 5.23392 6.1038 5.57322C6.1038 5.91252 5.82866 6.18766 5.48936 6.18766ZM9.62074 3.86594H6.37864V3.32752C6.37864 2.43362 7.10579 1.70647 7.99961 1.70647C8.89355 1.70647 9.62074 2.43362 9.62074 3.32752V3.86594ZM10.5108 6.18766C10.1715 6.18766 9.89635 5.91252 9.89635 5.57322C9.89635 5.23392 10.1715 4.95878 10.5108 4.95878C10.8501 4.95878 11.1252 5.23392 11.1252 5.57322C11.1252 5.91252 10.8501 6.18766 10.5108 6.18766Z" fill="white"/>
</g>
<defs>
<clipPath id="clip0">
<rect width="16" height="16" fill="white"/>
</clipPath>
</defs>
</svg>
