<svg width="99" height="51" viewBox="0 0 99 51" fill="none" xmlns="http://www.w3.org/2000/svg">
<path d="M17.2331 47.1225L14.8196 42.7041H14.7502L12.4057 47.1225L11.1643 42.9371H9.53955L11.8954 50.7255H11.9651L14.785 45.6346L17.5933 50.7255H17.6629L20.0884 42.9371H18.4052L17.2331 47.1225Z" fill="white"/>
<path d="M36.5198 47.2962H39.5719V46.0183H36.5198V44.2743H40.2098V42.9371H34.9419V50.4938H40.3261V49.1566H36.5198V47.2962Z" fill="white"/>
<path d="M57.5123 48.0175L58.5798 45.6576L59.6473 48.0175H57.5123ZM58.5568 42.7041L54.8313 50.4938H56.4211L57.0248 49.1803H60.134L60.7496 50.4938H62.3394L58.6257 42.7041H58.5568Z" fill="white"/>
<path d="M79.4097 46.6231H78.6555V44.2506H79.4097C80.512 44.2506 81.2543 44.4599 81.2543 45.3905C81.2543 46.3203 80.6276 46.6231 79.4097 46.6231ZM82.8329 45.3905C82.8329 43.6465 81.498 42.9371 79.8163 42.9371H77.0762V50.4938H78.6555V47.924H79.8163C79.8957 47.924 79.8616 47.924 79.9312 47.924L81.3824 50.4938H83.296L81.4625 47.6101C82.2292 47.2383 82.8329 46.4828 82.8329 45.3905Z" fill="white"/>
<path d="M98.2063 15.5778H85.6664L78.2301 23.2873H90.3968C88.8376 27.4043 84.8615 30.3376 80.2105 30.3376C74.2087 30.3376 69.3273 25.4477 69.3273 19.4346C69.3273 13.4174 74.2087 8.52747 80.2105 8.52747C83.5948 8.52747 86.6191 10.0781 88.6232 12.5085L93.859 7.0828C90.4922 3.34872 85.6219 0.997207 80.2105 0.997207C70.0647 0.997207 61.8115 9.26618 61.8115 19.4346C61.8115 29.5989 70.0647 37.8679 80.2105 37.8679C89.0396 37.8679 96.432 31.6065 98.2063 23.2873C98.471 22.0456 98.6109 20.7544 98.6109 19.4346C98.6109 18.1099 98.471 16.8236 98.2063 15.5778Z" fill="white"/>
<path d="M42.09 20.2696V20.2487L42.1367 20.2913C42.1095 20.2773 42.0935 20.2703 42.09 20.2696ZM56.8381 33.6643V7.49995H50.0591V18.6269L35.3062 5.23078L35.3103 31.4342H42.09V20.2703L56.8381 33.6643Z" fill="white"/>
<path d="M14.5207 31.9288H7.79144V22.2424H13.3894C19.3832 22.2424 22.2673 23.4331 22.2673 27.0005C22.2673 30.6264 19.949 31.9288 14.5207 31.9288ZM7.79144 7.0047H12.7676C17.9127 7.0047 20.5711 8.02456 20.5711 11.3666C20.5711 15.1621 17.9698 16.011 12.2587 16.011H7.79144V7.0047ZM21.9282 18.6736V18.3911C27.1309 17.3154 28.4875 13.4628 28.4875 9.95053C28.4875 4.7962 24.1905 1.05725 14.5773 1.05725H1.23153L7.78845 7.01168H0.101074V37.877H16.3305C26.2823 37.877 30.2409 33.1188 30.2409 27.6806C30.2409 23.6019 28.0354 19.411 21.9282 18.6736Z" fill="white"/>
</svg>
