<svg width="105" height="22" viewBox="0 0 105 22" fill="none" xmlns="http://www.w3.org/2000/svg">
<path d="M66.4641 11.4514L65.0554 8.8789H65.0156L63.6479 11.4514L62.9232 9.01417H61.976L63.3497 13.5498H63.3903L65.0359 10.5849L66.6733 13.5498H66.7143L68.1287 9.01417H67.1473L66.4641 11.4514Z" fill="white"/>
<path d="M77.7142 11.5529H79.495V10.8083H77.7142V9.79284H79.8667V9.01416H76.793V13.4145H79.9337V12.6362H77.7142V11.5529Z" fill="white"/>
<path d="M89.9593 11.9725L90.582 10.5983L91.2047 11.9725H89.9593ZM90.5682 8.87889L88.3954 13.4145H89.3232L89.6745 12.6497H91.489L91.8477 13.4145H92.775L90.6092 8.87889H90.5682Z" fill="white"/>
<path d="M102.733 11.1605H102.293V9.77943H102.733C103.376 9.77943 103.809 9.90129 103.809 10.4428C103.809 10.9842 103.444 11.1605 102.733 11.1605ZM104.73 10.4428C104.73 9.42766 103.951 9.01416 102.97 9.01416H101.372V13.4145H102.293V11.9181H102.97C103.016 11.9181 102.997 11.9181 103.037 11.9181L103.884 13.4145H105L103.93 11.7357C104.377 11.5188 104.73 11.0789 104.73 10.4428Z" fill="white"/>
<path d="M57.2273 9.01494H49.9128L45.5746 13.5043H52.6717C51.7622 15.9013 49.4428 17.6097 46.7302 17.6097C43.2292 17.6097 40.3814 14.7619 40.3814 11.2608C40.3814 7.75652 43.2292 4.90906 46.7302 4.90906C48.7044 4.90906 50.4681 5.81205 51.6375 7.22725L54.6918 4.06782C52.7274 1.89383 49.8868 0.524531 46.7302 0.524531C40.8123 0.524531 35.9969 5.33922 35.9969 11.2608C35.9969 17.1792 40.8123 21.9943 46.7302 21.9943C51.88 21.9943 56.1931 18.3482 57.2273 13.5043C57.3816 12.7812 57.4637 12.0293 57.4637 11.2608C57.4637 10.489 57.3816 9.74001 57.2273 9.01494Z" fill="white"/>
<path d="M24.4934 11.7467V11.7345L24.5204 11.7597C24.5045 11.7515 24.4953 11.7475 24.4934 11.7467ZM33.0961 19.5469V4.31117H29.1416V10.7905L20.5361 2.98939L20.5385 18.2479H24.4934V11.7475L33.0961 19.5469Z" fill="white"/>
<path d="M8.41136 18.5363H4.486V12.8958H7.75177C11.2478 12.8958 12.9303 13.5888 12.9303 15.6665C12.9303 17.7775 11.5778 18.5363 8.41136 18.5363ZM4.486 4.02234H7.38871C10.3902 4.02234 11.9409 4.6162 11.9409 6.56231C11.9409 8.77245 10.4233 9.2672 7.09186 9.2672H4.486V4.02234ZM12.7325 10.8173V10.6532C15.7672 10.0264 16.5586 7.78335 16.5586 5.73813C16.5586 2.7363 14.052 0.559067 8.44438 0.559067H0.659442L4.48425 4.0264H0V22H9.46703C15.2722 22 17.5812 19.2289 17.5812 16.0621C17.5812 13.6875 16.295 11.2466 12.7325 10.8173Z" fill="white"/>
</svg>
