<svg width="21" height="21" viewBox="0 0 21 21" fill="none" xmlns="http://www.w3.org/2000/svg">
<g clip-path="url(#clip0)">
<path d="M10.1441 18.1945C10.1441 19.1577 9.36331 19.9385 8.40012 19.9385C7.43693 19.9385 6.65613 19.1577 6.65613 18.1945C6.65613 17.2313 7.43694 16.4505 8.40013 16.4505C9.36332 16.4505 10.1441 17.2313 10.1441 18.1945ZM15.4617 16.4505C14.4985 16.4505 13.7177 17.2313 13.7177 18.1945C13.7177 19.1577 14.4985 19.9385 15.4617 19.9385C16.4249 19.9385 17.2057 19.1577 17.2057 18.1945C17.2057 17.2313 16.4249 16.4505 15.4617 16.4505ZM20.8752 8.26341L18.7293 14.6416C18.7293 14.6416 18.5516 15.5882 17.6465 15.5882C16.7415 15.5882 7.89053 15.5882 6.81042 15.5882C5.73031 15.5882 5.68492 14.4018 5.68492 14.4018C5.68492 14.4018 4.53351 5.85943 4.47645 5.34336C4.41939 4.82728 3.7594 4.44478 3.7594 4.44478L0.919728 3.1183C-0.634959 2.3053 0.0717143 0.758394 0.919728 1.11368C4.52053 2.81229 6.19322 3.64864 6.30084 4.3177C6.40976 4.98807 6.59907 6.60241 6.59907 6.60241V6.61278C6.62112 6.6063 6.63667 6.60241 6.63667 6.60241C6.63667 6.60241 17.679 6.60241 19.9092 6.60241C21.5119 6.60241 20.8752 8.26602 20.8752 8.26341ZM17.771 11.8149L17.749 11.8162H7.24351L7.46005 13.533H17.2602L17.771 11.8149ZM18.7941 8.35289H6.80912L7.03993 10.1877C9.3389 10.1877 16.0711 10.1877 18.2521 10.1877L18.7941 8.35289Z" fill="white"/>
</g>
<defs>
<clipPath id="clip0">
<rect width="21" height="21" fill="white"/>
</clipPath>
</defs>
</svg>
