<svg width="27" height="27" viewBox="0 0 27 27" fill="none" xmlns="http://www.w3.org/2000/svg">
<g clip-path="url(#clip0)">
<path d="M25.8818 18.2371C25.0779 17.2729 24.1319 16.45 23.2368 15.5762C22.4293 14.7885 22.3783 14.3316 23.0275 13.4225C23.7359 12.4303 24.4979 11.4762 25.2128 10.4885C25.8801 9.5654 26.5623 8.64484 26.9134 7.53962C27.1361 6.83647 26.9391 6.52588 26.2181 6.40277C26.0939 6.38123 25.9654 6.38011 25.839 6.38011L21.561 6.37507C21.0342 6.36724 20.7429 6.59695 20.5565 7.06395C20.305 7.69519 20.0456 8.32587 19.7459 8.935C19.066 10.3161 18.3066 11.6511 17.242 12.7815C17.0072 13.0308 16.7476 13.3458 16.3553 13.216C15.8645 13.0369 15.7198 12.2283 15.7279 11.9549L15.7238 7.01722C15.6286 6.31183 15.4722 5.99733 14.7719 5.86023L10.328 5.86107C9.73482 5.86107 9.43739 6.09023 9.12065 6.46125C8.93794 6.67558 8.88281 6.81464 9.25831 6.88571C9.99588 7.02561 10.4114 7.50296 10.5216 8.24248C10.6985 9.4241 10.6862 10.6105 10.5843 11.7968C10.5544 12.1432 10.4948 12.4888 10.3574 12.8123C10.1425 13.3207 9.79554 13.4242 9.33974 13.1114C8.92702 12.8282 8.63715 12.4286 8.35343 12.0274C7.28765 10.5215 6.43732 8.89751 5.74397 7.19098C5.54363 6.69796 5.19807 6.39913 4.67568 6.39102C3.39221 6.37059 2.10847 6.36723 0.825009 6.39214C0.052749 6.40669 -0.17753 6.78163 0.13697 7.4817C1.53487 10.5912 3.09086 13.6142 5.12196 16.368C6.1648 17.7813 7.36208 19.0289 8.90884 19.9131C10.6618 20.9154 12.5488 21.217 14.5363 21.1241C15.4669 21.0805 15.7464 20.8384 15.7895 19.9109C15.8186 19.2763 15.8905 18.6453 16.2036 18.0751C16.5108 17.5155 16.9762 17.4089 17.5125 17.757C17.7809 17.9313 18.007 18.1532 18.2204 18.3871C18.7442 18.9601 19.2493 19.5505 19.7929 20.1042C20.4748 20.7982 21.2826 21.2081 22.2983 21.1244L26.2301 21.1252C26.8636 21.0838 27.1921 20.3071 26.8283 19.6C26.5729 19.1048 26.2377 18.6638 25.8818 18.2371Z" fill="white"/>
</g>
<defs>
<clipPath id="clip0">
<rect width="27" height="27" fill="white"/>
</clipPath>
</defs>
</svg>
